<svg width="24" height="25" viewBox="0 0 24 25" fill="none" xmlns="http://www.w3.org/2000/svg">
<ellipse cx="12" cy="12.5" rx="12" ry="12.5" fill="#00FFFF"/>
<g clip-path="url(#clip0_347_126)">
<path d="M14.6499 18.5805C14.1491 19.1368 13.5722 19.689 12.9192 20.237C13.0963 20.2134 13.2734 20.1843 13.4463 20.151C13.9194 20.0552 14.3746 19.9151 14.8145 19.7237C14.928 19.6751 15.0387 19.6238 15.148 19.5711C15.2296 19.6765 15.3209 19.7681 15.4191 19.8457C15.5256 19.9304 15.6391 19.997 15.7581 20.0469C15.5395 20.1648 15.3153 20.2717 15.0857 20.3715C14.5973 20.5824 14.0951 20.7364 13.5777 20.8418C13.0603 20.9473 12.5249 21 11.9743 21C11.4237 21 10.8924 20.9473 10.3708 20.8418C9.85897 20.7406 9.36646 20.588 8.88224 20.3813C8.87809 20.3813 8.86841 20.3771 8.86287 20.3715C8.3842 20.1648 7.92904 19.9151 7.50431 19.6321C7.07821 19.3491 6.6853 19.0231 6.32699 18.6624C5.96313 18.303 5.64217 17.909 5.35994 17.4817C5.07218 17.0545 4.82869 16.598 4.62256 16.1194C4.41227 15.6297 4.25871 15.1261 4.15356 14.6072C4.05257 14.0897 4 13.5515 4 12.9993C4 12.4472 4.05257 11.9144 4.15771 11.3914C4.25871 10.8781 4.41089 10.3842 4.61702 9.89864C4.61702 9.89448 4.62118 9.88477 4.62671 9.87922C4.83285 9.39504 5.08187 8.94277 5.3641 8.51686C5.64632 8.08957 5.97144 7.69557 6.33114 7.33625C6.68945 6.97139 7.08236 6.64953 7.50846 6.36651C7.93457 6.07795 8.38835 5.83378 8.86702 5.62707C9.35539 5.4162 9.85758 5.2622 10.375 5.15677C10.891 5.05272 11.4278 5 11.9771 5C12.5277 5 13.0589 5.05272 13.5805 5.15815C14.0924 5.25943 14.5849 5.41204 15.0691 5.61875C15.0732 5.61875 15.0829 5.62291 15.0885 5.62846C15.5671 5.83517 16.0223 6.08489 16.447 6.3679C16.8731 6.65091 17.266 6.97694 17.6243 7.33764C17.9882 7.69696 18.3092 8.09096 18.5914 8.51825C18.8792 8.94555 19.1226 9.40198 19.3288 9.8806C19.5391 10.3703 19.6926 10.8739 19.7978 11.3928C19.8573 11.6869 19.9001 11.9866 19.9264 12.2918L19.2029 12.0989C19.1807 11.9075 19.1517 11.7188 19.1143 11.5315C19.0189 11.0571 18.8792 10.6006 18.6882 10.1595C18.5693 9.87644 18.4351 9.6073 18.2856 9.34787H15.9504C16.3654 10.0596 16.6642 10.7671 16.8455 11.4733L16.0597 11.2638C15.8549 10.6311 15.5464 9.99298 15.1313 9.34787H12.3271V10.6506C12.2773 10.6797 12.2275 10.7144 12.179 10.7532C12.1403 10.7838 12.1029 10.817 12.0684 10.8517C12.0213 10.9003 11.9771 10.9516 11.9397 11.0071C11.8788 11.0959 11.8304 11.1944 11.7931 11.2998C11.7557 11.4067 11.7336 11.5135 11.7253 11.6175C11.7183 11.7063 11.7211 11.7979 11.7349 11.8881C11.746 11.963 11.7626 12.0365 11.7875 12.1086L11.7944 12.1281C11.8 12.1433 11.8055 12.1586 11.811 12.1725C11.8193 12.196 11.8263 12.2099 11.829 12.2169L11.8318 12.2155L12.334 13.3489H12.3257V16.6507H13.7949L14.1048 17.3513H12.3271V19.818C13.1087 19.1743 13.7797 18.525 14.3386 17.8744L14.6499 18.5805ZM19.9292 18.5916C19.8822 18.6388 19.8268 18.6748 19.7687 18.7012C19.7078 18.729 19.6428 18.7456 19.5778 18.7511C19.5072 18.7567 19.4353 18.7498 19.3661 18.7276C19.2997 18.7068 19.2361 18.6721 19.1794 18.6249L17.6451 17.3194L17.118 18.6166C17.0737 18.7248 17.0212 18.8247 16.9617 18.9149C16.9008 19.0064 16.833 19.0855 16.7625 19.1479C16.7057 19.1979 16.6435 19.2409 16.5785 19.2728C16.5134 19.3047 16.447 19.3255 16.3778 19.3352C16.2976 19.3463 16.2174 19.3408 16.1399 19.3186C16.0652 19.2964 15.9932 19.2603 15.9241 19.2062C15.8687 19.1632 15.8175 19.1077 15.7691 19.0411C15.7249 18.9801 15.6847 18.9079 15.6474 18.8247C14.6485 16.5675 13.4574 14.1383 12.5664 11.8659C12.5553 11.8353 12.547 11.8048 12.5429 11.7729C12.5387 11.741 12.5374 11.7091 12.5401 11.6772C12.5429 11.6397 12.5512 11.6037 12.5636 11.5676C12.5761 11.5329 12.5927 11.4982 12.6134 11.4677C12.6245 11.4524 12.6356 11.4372 12.6494 11.4247C12.6605 11.4136 12.6729 11.4025 12.6868 11.3928C12.7117 11.3734 12.738 11.3567 12.7656 11.3428L12.7725 11.3401C12.7988 11.3276 12.8265 11.3179 12.8528 11.3123L12.8652 11.3095C12.8901 11.304 12.915 11.3012 12.9399 11.2998C12.969 11.2984 12.9967 11.3012 13.0243 11.3054C13.034 11.3068 13.0437 11.3082 13.0534 11.3095C15.4938 11.9172 17.9481 12.6109 20.383 13.2587C20.4701 13.2823 20.5476 13.3115 20.6154 13.3447C20.6887 13.3822 20.751 13.4238 20.8022 13.471C20.8658 13.5293 20.9142 13.5959 20.9474 13.6666C20.982 13.7401 21 13.8192 21.0014 13.9011V13.9025C21.0028 13.9718 20.9931 14.0412 20.9723 14.1106C20.9516 14.1799 20.9198 14.2465 20.8783 14.3117C20.8271 14.3922 20.7607 14.4726 20.6804 14.5462C20.6029 14.6183 20.5116 14.6863 20.4106 14.7487C20.0108 14.9846 19.6124 15.2343 19.2153 15.4757L20.7441 16.7895C20.7994 16.838 20.8437 16.8949 20.8741 16.9573L20.8783 16.9684C20.9073 17.0309 20.9253 17.0961 20.9308 17.1641C20.9364 17.232 20.9294 17.3028 20.9087 17.3721C20.8893 17.4374 20.8575 17.5012 20.8132 17.5581C20.5794 17.8466 20.1879 18.3516 19.9292 18.5916ZM19.528 18.088L20.2681 17.2168L18.4696 15.6713L18.46 15.6616C18.4517 15.6533 18.442 15.6435 18.4351 15.6352C18.424 15.6227 18.4143 15.6089 18.406 15.5936C18.3604 15.5187 18.3507 15.4327 18.37 15.3536C18.3894 15.2745 18.4392 15.2024 18.5139 15.158C19.0341 14.8708 19.5709 14.5115 20.0841 14.2021C20.1436 14.166 20.1962 14.1258 20.2405 14.0856C20.282 14.0467 20.3166 14.0079 20.3401 13.9704C20.3498 13.9552 20.3567 13.9427 20.3608 13.9302C20.3498 13.9219 20.3373 13.9149 20.3193 13.9066C20.2931 13.8941 20.2585 13.883 20.2183 13.8719L13.3398 12.0434L16.2284 18.568C16.245 18.6041 16.2616 18.636 16.2796 18.6624L16.2838 18.6693C16.2935 18.6818 16.3018 18.6929 16.3087 18.6998C16.3197 18.6943 16.3308 18.6846 16.3446 18.6721C16.3778 18.6429 16.4111 18.6027 16.4415 18.5555C16.4747 18.5056 16.5051 18.4459 16.5314 18.3793L17.2231 16.6757L17.2301 16.6618C17.2356 16.6507 17.2411 16.6396 17.2467 16.6299L17.2508 16.623C17.2577 16.6119 17.266 16.6008 17.2757 16.5897C17.3324 16.5231 17.4113 16.4843 17.4915 16.4787C17.5718 16.4718 17.6548 16.4967 17.7226 16.5536L19.528 18.088ZM11.0404 20.237C9.91154 19.2867 9.00675 18.3266 8.33716 17.3527H6.12915C6.33944 17.6413 6.57463 17.909 6.8278 18.1643C7.15845 18.4959 7.51261 18.7886 7.89998 19.0466C8.2832 19.3061 8.69963 19.5308 9.14925 19.7237C9.1534 19.7278 9.15894 19.7278 9.16309 19.7334C9.59888 19.9151 10.0485 20.0594 10.5175 20.151C10.6904 20.1843 10.8675 20.2134 11.0432 20.237H11.0404ZM5.66984 16.6521H7.8903C7.27327 15.5672 6.93848 14.4643 6.89974 13.3503H4.70833C4.7277 13.7346 4.77059 14.1036 4.84253 14.4685C4.93799 14.9429 5.07633 15.3994 5.26864 15.8405C5.38761 16.1236 5.52181 16.3927 5.66984 16.6521ZM4.70833 12.6497H6.91496C6.99658 11.5551 7.36043 10.4563 8.00651 9.34787H5.66984C5.52181 9.6073 5.38761 9.87505 5.26725 10.1595C5.2631 10.1636 5.2631 10.1692 5.25757 10.1733C5.07633 10.6103 4.93245 11.0612 4.84115 11.5315C4.77059 11.8964 4.72217 12.2654 4.70833 12.6497ZM6.125 8.64727H8.45614C9.12158 7.68725 9.99731 6.72306 11.0889 5.75332C10.8924 5.7769 10.7015 5.80603 10.5147 5.84488C10.0416 5.94061 9.58643 6.08072 9.14648 6.27218C8.70101 6.46363 8.28459 6.68976 7.89722 6.94919C7.50985 7.20862 7.15568 7.50134 6.82503 7.83153C6.57186 8.08541 6.33667 8.35455 6.12638 8.64311L6.125 8.64727ZM12.868 5.75332C13.9637 6.72306 14.8394 7.68725 15.5007 8.64727H17.8319C17.6216 8.35871 17.3864 8.09096 17.1332 7.83569C16.8026 7.50412 16.4484 7.21139 16.061 6.95196C15.6778 6.69253 15.2614 6.46779 14.8118 6.27495C14.8076 6.27079 14.8021 6.27079 14.7979 6.26524C14.3621 6.0835 13.9125 5.93922 13.4435 5.84765C13.2526 5.80881 13.0603 5.78106 12.8694 5.75609V5.75332H12.868ZM12.3271 6.20975V8.64727H14.643C14.0356 7.84124 13.2651 7.02965 12.3271 6.20975ZM11.6284 19.8194V17.3527H9.19214C9.81885 18.1782 10.6323 19.0036 11.6284 19.8194ZM11.6284 16.6521V13.3503H7.59839C7.64128 14.4588 8.01481 15.5575 8.70378 16.6521H11.6284ZM11.6284 12.6497V9.34787H8.82414C8.10612 10.4661 7.70492 11.5648 7.61361 12.6497H11.6284ZM11.6284 8.64727V6.20975C10.6904 7.03104 9.91984 7.84124 9.3125 8.64727H11.6284Z" fill="black"/>
</g>
<defs>
<clipPath id="clip0_347_126">
<rect width="17" height="16" fill="white" transform="translate(4 5)"/>
</clipPath>
</defs>
</svg>
